# xmcd CD database file
#
# Track frame offsets:
#	150
#	21232
#	40211
#	55779
#	73400
#	87601
#	102713
#	118815
#	132646
#	149126
#	164338
#	174762
#	195089
#	217821
#	241484
#	257517
#
# Disc length: 3662 seconds
#
# Revision: 0
# Processed by: cddbd v1.5.1PL0 Copyright (c) Steve Scherf et al.
# Submitted via: CDex 1.51
#
DISCID=f10e4c10
DTITLE=JIWA HERBA - Rostro Angelical
DYEAR=2003
DGENRE=New Age
TTITLE0=Sonido del Silencio
TTITLE1=Por tu culpa
TTITLE2=Llaqui Llaquigu
TTITLE3=Ya no puedo mas amor
TTITLE4=Nucanchi Taky
TTITLE5=Veneno
TTITLE6=Tobas
TTITLE7=Gitana
TTITLE8=Achimamita
TTITLE9=Rostro Angelical
TTITLE10=La Verdad
TTITLE11=Titanic
TTITLE12=El Tren que nos Separa
TTITLE13=Chiquitina
TTITLE14=Yesterday
TTITLE15=El condor Pasa
EXTD=YEAR: 2003
EXTT0=
EXTT1=
EXTT2=
EXTT3=
EXTT4=
EXTT5=
EXTT6=
EXTT7=
EXTT8=
EXTT9=
EXTT10=
EXTT11=
EXTT12=
EXTT13=
EXTT14=
EXTT15=
PLAYORDER=
